<svg xmlns="http://www.w3.org/2000/svg" viewBox="0 0 512 512">
  <rect width="512" height="512" rx="112" fill="#fff0f5"/>
  <path d="M256,390 C256,390 100,296 100,185 C100,140 133,108 175,112 C203,115 228,133 256,165 C284,133 309,115 337,112 C379,108 412,140 412,185 C412,296 256,390 256,390Z" fill="#f472b6"/>
  <path d="M256,345 C256,345 130,268 130,175 C130,142 155,118 185,122 C208,125 230,140 256,168 C282,140 304,125 327,122 C357,118 382,142 382,175 C382,268 256,345 256,345Z" fill="#fb7dc4" opacity="0.4"/>
</svg>
